<svg width="624" height="640" viewBox="0 0 624 640" fill="none" xmlns="http://www.w3.org/2000/svg">
<path d="M109.284 434.594C106.573 434.594 103.49 434.344 100.028 433.852C96.5738 433.351 93.3619 432.375 90.4002 430.889C87.4385 429.412 85.1628 427.37 83.5488 424.779C81.9429 422.189 81.5152 418.791 82.2495 414.602C82.992 411.139 84.4123 408.363 86.5105 406.272C88.6087 404.174 91.0135 402.568 93.7331 401.462C96.4527 400.348 99.2288 399.613 102.061 399.242C104.902 398.871 107.428 398.685 109.647 398.685C117.298 398.685 124.706 399.613 131.856 401.462C139.014 403.31 145.922 404.981 152.588 406.458C156.042 402.995 160.052 397.943 164.62 391.276C169.188 384.609 174.062 377.022 179.243 368.507C184.424 359.992 189.79 350.799 195.343 340.928C200.895 331.057 206.261 321.307 211.442 311.678C223.531 288.973 236.241 264.284 249.573 237.632L249.944 238.004V236.527C252.405 235.292 254.633 234.186 256.61 233.193C258.579 232.209 260.435 231.466 262.162 230.974C263.889 230.231 265.616 229.618 267.343 229.125C253.277 231.845 241.366 235.421 231.617 239.86C221.869 244.299 213.968 248.932 207.924 253.743C201.871 258.553 197.312 263.307 194.229 267.996C191.138 272.686 189.233 276.511 188.491 279.474C187.749 281.693 188.612 282.807 191.082 282.807C193.793 282.807 195.891 282.194 197.376 280.959C198.853 279.724 200.152 278.311 201.266 276.697C202.38 275.091 203.421 273.678 204.413 272.435C205.398 271.201 206.875 270.587 208.852 270.587C211.563 270.587 212.556 271.822 211.813 274.292C211.313 277.754 208.537 281.265 203.485 284.841C198.425 288.425 192.687 290.208 186.272 290.208C184.795 290.208 182.939 290.023 180.72 289.651C178.5 289.28 176.459 288.481 174.611 287.246C172.763 286.011 171.334 284.228 170.35 281.879C169.357 279.538 169.236 276.39 169.978 272.435C170.721 268.981 173.618 264.421 178.678 258.739C183.73 253.065 190.525 247.512 199.039 242.08C207.552 236.656 217.487 231.958 228.841 228.012C240.187 224.065 252.656 222.087 266.229 222.087C268.449 222.087 270.547 222.216 272.524 222.459C274.001 222.709 275.421 223.08 276.785 223.572C278.141 224.073 278.698 224.686 278.447 225.421C278.447 226.163 278.133 226.72 277.519 227.083C276.898 227.455 276.099 227.891 275.114 228.383C274.122 228.883 273.137 229.682 272.153 230.788C271.16 231.902 270.176 233.694 269.191 236.155C262.767 252.443 255.617 268.618 247.717 284.655C239.816 300.701 231.859 315.754 223.838 329.822C215.816 343.89 208.101 356.481 200.701 367.587C193.301 378.693 186.877 387.579 181.454 394.246C174.054 402.882 169.607 408.064 168.13 409.799C172.819 410.784 176.951 411.648 180.534 412.39C184.109 413.133 188.184 413.746 192.752 414.239C197.312 414.731 202.065 414.981 207.004 414.981C211.2 414.981 215.146 414.731 218.85 414.239C222.555 413.738 226.501 412.761 230.697 411.276C234.151 410.041 236.306 408.621 237.177 407.015C238.041 405.409 238.84 404.61 239.582 404.61C240.325 404.61 241.188 405.473 242.173 407.2C243.157 408.928 243.407 410.776 242.915 412.753C242.665 413.738 242.294 414.973 241.801 416.458C241.301 417.935 240.01 419.356 237.912 420.72C235.814 422.076 232.787 423.246 228.841 424.239C224.887 425.223 219.335 425.716 212.185 425.716C204.784 425.716 196.327 424.788 186.829 422.939C177.322 421.091 168.26 419.17 159.625 417.201C152.959 422.132 144.937 426.273 135.56 429.606C126.191 432.931 117.427 434.594 109.284 434.594ZM113.731 407.935C109.292 407.935 105.467 408.686 102.255 410.211C99.0513 411.72 96.8885 413.423 95.7749 415.32C94.6612 417.209 94.9759 419.097 96.7029 420.994C98.4299 422.883 102.134 424.206 107.807 424.965C113.488 424.965 119.283 423.972 125.206 422.003C131.13 420.026 136.561 417.564 141.491 414.602C143.469 415.094 145.381 415.401 147.229 415.53C149.077 415.651 150.619 415.837 151.853 416.087C153.33 416.329 154.815 416.458 156.292 416.458C151.603 415.683 147.463 414.844 143.888 413.94C140.313 413.036 136.98 412.132 133.898 411.236C130.815 410.332 127.667 409.557 124.456 408.92C121.26 408.258 117.677 407.935 113.731 407.935Z" fill="#EF4C12"/>
<path d="M408.762 233.556V234.67C408.512 236.147 408.14 237.697 407.648 239.295C407.148 240.901 406.655 242.072 406.171 242.814C405.671 243.557 403.452 245.47 399.505 248.553C395.559 251.644 390.62 255.405 384.697 259.844C378.774 264.284 372.108 269.167 364.708 274.469C357.307 279.78 350.02 285.083 342.87 290.386C335.712 295.697 328.861 300.693 322.324 305.382C315.779 310.071 310.292 314.026 305.853 317.231C299.93 321.428 293.506 326.182 286.606 331.484C279.69 336.795 273.097 342.219 266.802 347.772C260.508 353.325 255.077 358.822 250.517 364.245C245.95 369.677 243.173 374.609 242.189 379.056C241.689 381.776 241.939 383.996 242.931 385.723C243.173 385.723 245.707 385.416 250.517 384.795C255.327 384.181 261.065 383.495 267.73 382.761C274.396 382.018 281.175 381.34 288.091 380.727C294.999 380.113 300.551 379.799 304.747 379.799C312.89 379.799 319.306 381.155 323.994 383.875C328.683 386.595 330.66 389.799 329.918 393.504C328.925 398.193 327.384 401.647 325.294 403.867C323.196 406.086 321.896 407.2 321.404 407.2C320.411 407.2 319.798 406.829 319.556 406.086C319.306 405.836 319.185 405.465 319.185 404.973C319.677 402.253 316.037 400.283 308.266 399.048C300.495 397.814 289.939 396.95 276.615 396.458C275.623 396.458 273.525 396.579 270.321 396.829C267.109 397.071 263.776 397.386 260.322 397.757C256.86 398.128 253.592 398.435 250.509 398.685C247.418 398.927 245.635 399.057 245.142 399.057C240.704 398.556 237.307 397.329 234.966 395.352C232.618 393.382 230.705 390.17 229.228 385.723C227.752 381.284 227.752 374.988 229.228 366.844C229.721 364.132 230.705 361.106 232.19 357.772C233.667 354.439 236.015 351.049 239.227 347.594C243.916 342.663 251.566 336.061 262.178 327.788C272.782 319.523 284.572 310.572 297.533 300.943C310.493 291.314 323.752 281.322 337.326 270.95C350.892 260.587 362.868 250.958 373.229 242.072C363.11 242.072 353.668 242.136 344.912 242.257C336.148 242.386 328.255 242.758 321.218 243.371C314.181 243.992 308.08 245.034 302.891 246.519C297.71 247.996 293.635 250.102 290.673 252.814L289.931 253.557C289.431 254.057 288.817 254.299 288.083 254.299C287.349 254.299 286.913 253.436 286.784 251.709C286.655 249.981 286.84 248.375 287.341 246.898C287.833 244.679 288.761 242.394 290.117 240.046C291.472 237.705 293.635 235.542 296.597 233.565C299.558 231.595 303.569 229.989 308.629 228.754C313.681 227.519 320.161 226.906 328.062 226.906C335.462 226.906 344.282 227.091 354.531 227.463C364.772 227.834 375.82 228.02 387.659 228.02C392.347 228.02 395.987 228.205 398.577 228.577C401.168 228.948 403.145 229.384 404.501 229.876C405.856 230.376 406.777 230.925 407.277 231.539C407.769 232.136 408.261 232.814 408.762 233.556Z" fill="#EF4C12"/>
<path d="M346.203 395.352C345.953 393.617 345.888 391.881 346.018 390.146C346.139 388.411 346.324 386.675 346.574 384.932C348.794 374.52 352.619 365.343 358.05 357.409V357.03C363.473 347.11 369.953 339.491 377.482 334.156C385.004 328.821 392.226 324.914 399.134 322.437C407.277 319.709 415.541 318.094 423.933 317.602C424.918 315.649 426.088 312.832 427.452 309.151C428.808 305.471 430.163 301.492 431.527 297.198C432.883 292.904 434.118 288.554 435.231 284.139C436.345 279.732 437.265 275.809 438.007 272.371C438.75 269.191 439.121 266.495 439.121 264.284C441.09 264.041 442.882 263.856 444.488 263.727C446.094 263.606 447.635 263.541 449.112 263.541H453.921C447.014 263.541 440.283 263.234 433.746 262.613C427.202 261.999 421.585 261.685 416.904 261.685C411.223 261.192 406.599 259.037 403.024 255.203C399.441 251.378 398.271 246.261 399.505 239.836C399.505 239.594 399.691 238.722 400.062 237.245C400.433 235.768 401.176 234.283 402.282 232.806C403.395 231.329 404.872 229.973 406.72 228.73C408.568 227.495 411.102 226.882 414.306 226.882C417.51 226.882 421.214 227.382 425.41 228.359C429.607 229.351 433.674 230.893 437.628 232.983C441.574 235.082 445.149 237.673 448.361 240.756C451.565 243.847 453.784 247.487 455.027 251.676C458.973 251.676 462.92 251.741 466.874 251.862C470.82 251.991 474.339 252.362 477.421 252.976C480.504 253.597 482.909 254.517 484.636 255.752C486.363 256.987 487.226 258.844 487.226 261.305C486.726 263.775 485.927 265.744 484.822 267.23C483.708 268.707 482.166 270.071 480.197 271.306C478.22 272.54 475.388 273.154 471.684 273.154C470.941 273.154 470.756 272.783 471.127 272.04C471.498 271.297 471.498 270.434 471.127 269.449C470.756 268.464 469.65 267.415 467.794 266.301C465.946 265.188 462.427 264.267 457.246 263.525C456.996 266.221 456.811 268.618 456.689 270.7C456.56 272.783 456.254 275.051 455.761 277.504C454.527 284.123 452.8 290.563 450.581 296.811C448.361 303.066 445.521 310.112 442.067 317.957C449.467 317.957 456.811 318.022 464.09 318.143C471.369 318.272 478.955 318.086 486.855 317.586C490.559 311.169 494.32 304.809 498.145 298.522C501.97 292.226 505.424 286.366 508.507 280.934C511.59 275.511 514.116 270.813 516.093 266.866C518.062 262.92 519.297 259.957 519.797 257.98C520.039 256.503 519.547 255.76 518.32 255.76C518.07 255.76 517.634 255.889 517.021 256.132C516.399 256.382 515.843 256.503 515.358 256.503C514.124 256.503 513.51 256.261 513.51 255.76C513.26 255.518 513.26 255.147 513.51 254.647C514.003 252.185 515.851 250.385 519.063 249.279C522.266 248.165 526.221 247.617 530.909 247.617C533.871 247.617 536.461 248.359 538.681 249.836C540.9 251.313 541.642 254.154 540.9 258.351C540.4 260.821 539.238 264.033 537.381 267.98C535.533 271.935 533.185 276.31 530.344 281.12C527.504 285.931 524.356 291.177 520.902 296.851C517.44 302.533 513.865 308.207 510.169 313.881C510.912 313.389 512.138 312.832 513.874 312.218C515.6 311.605 517.077 310.798 518.312 309.813C519.054 309.321 519.918 308.272 520.902 306.665C521.887 305.059 522.629 304.26 523.122 304.26C523.864 304.26 524.784 305.067 525.898 306.665C527.011 308.272 527.318 310.314 526.826 312.775C526.576 313.768 526.269 314.809 525.898 315.923C525.527 317.037 524.599 318.11 523.122 319.152C521.645 320.193 519.418 321.169 516.456 322.081C513.494 322.994 509.298 323.841 503.867 324.624C497.693 334.931 491.834 345.302 486.282 355.722C480.73 366.15 476.59 374.673 473.879 381.3C473.628 382.527 473.693 383.576 474.064 384.432C474.435 385.287 475.727 385.715 477.954 385.715C480.415 385.715 483.506 384.052 487.21 380.719C490.914 377.385 494.489 373.681 497.943 369.613C501.397 365.537 504.359 361.784 506.828 358.321C509.29 354.867 510.654 353.018 510.904 352.768C511.396 351.784 512.017 351.348 512.752 351.469C513.494 351.598 513.244 353.503 512.009 357.207C511.017 359.927 509.169 363.382 506.457 367.571C503.738 371.768 500.534 375.779 496.83 379.605C493.126 383.431 489.115 386.821 484.797 389.783C480.48 392.745 476.469 394.222 472.765 394.222C471.038 394.222 469.117 394.036 467.027 393.665C464.929 393.294 462.952 392.495 461.104 391.26C459.256 390.025 457.892 388.241 457.028 385.892C456.157 383.552 456.1 380.283 456.843 376.078C457.827 370.896 460.668 363.987 465.357 355.343C470.045 346.707 475.598 337.078 482.013 326.464C477.074 326.464 473.185 326.464 470.352 326.464C467.511 326.464 464.8 326.529 462.209 326.65C459.619 326.779 456.528 326.835 452.953 326.835C449.37 326.835 444.375 326.835 437.959 326.835C436.966 328.813 434.997 332.453 432.036 337.756C429.074 343.067 425.491 349.047 421.303 355.714C417.106 362.381 412.353 369.355 407.051 376.635C401.741 383.915 396.318 390.582 390.766 396.627C385.213 402.672 379.661 407.604 374.109 411.438C368.557 415.264 363.433 417.176 358.744 417.176C356.525 417.176 354.612 416.434 353.006 414.957C351.4 413.48 350.044 411.623 348.931 409.404C347.817 407.184 347.018 404.836 346.526 402.366C346.074 399.912 345.953 397.571 346.203 395.352ZM387.287 337.223C382.349 340.686 378.217 344.568 374.884 348.886C371.551 353.204 368.896 357.53 366.927 361.84C364.95 366.158 363.465 370.17 362.488 373.874C361.496 377.579 360.882 380.42 360.64 382.39C360.14 385.352 359.954 387.757 360.084 389.613C360.205 391.462 360.511 392.89 361.012 393.875C361.504 395.11 362.125 395.965 362.86 396.466C363.602 396.216 364.215 396.094 364.708 396.094C367.669 395.352 371.002 393.197 374.706 389.613C378.411 386.038 382.228 381.784 386.182 376.837C390.128 371.905 394.01 366.594 397.843 360.92C401.668 355.246 405.058 349.943 408.019 345.004C410.981 340.072 413.442 335.932 415.419 332.598C417.389 329.265 418.502 327.36 418.752 326.86L417.639 329.079C419.608 328.837 421.214 328.587 422.448 328.337C423.683 328.095 424.853 327.909 425.967 327.78C427.081 327.659 428.372 327.538 429.857 327.408C431.334 327.287 433.432 327.102 436.151 326.852C429.978 326.852 424.547 326.916 419.866 327.037C415.177 327.166 410.981 327.594 407.277 328.337C403.573 329.079 400.119 330.185 396.915 331.67C393.703 333.147 390.491 335.003 387.287 337.223ZM434.675 252.435C434.174 251.943 433.682 250.893 433.198 249.287C432.697 247.681 431.842 245.954 430.607 244.106C429.373 242.257 427.46 240.401 424.869 238.553C422.279 236.704 418.76 235.284 414.322 234.291C410.618 234.291 408.334 234.912 407.471 236.139C406.607 237.374 406.05 238.488 405.808 239.473C405.308 241.942 405.865 244.041 407.471 245.768C409.076 247.495 411.11 248.859 413.58 249.844C416.041 250.837 418.631 251.571 421.351 252.064C424.062 252.564 426.403 252.806 428.388 252.806C429.373 252.806 430.293 252.806 431.164 252.806C432.028 252.806 433.069 252.685 434.311 252.435H434.675Z" fill="#EF4C12"/>
<path d="M311.55 639.934C228.333 639.934 150.094 607.52 91.2475 548.672C32.4011 489.817 0 411.575 0 328.345H9.66789C9.66789 494.83 145.091 630.272 311.55 630.272C478.01 630.272 613.433 494.83 613.433 328.345H623.101C623.101 411.575 590.692 489.825 531.853 548.672C473.007 607.52 394.768 639.934 311.55 639.934Z" fill="#EF4C12"/>
<path d="M37.7998 222.58L36.5167 216.26C40.3015 215.881 43.4569 213.443 45.1113 209.73C47.0481 205.396 46.4267 201.183 43.4811 199.867C39.9142 198.277 35.4918 202.394 31.5456 206.026C27.5187 209.658 22.9268 213.637 16.8663 210.933C10.5474 208.108 8.58645 200.658 11.6853 193.717C14.1467 188.212 18.6417 185.275 23.5805 185.589L24.6861 191.481C21.5388 191.514 18.8918 193.523 17.641 196.324C16.0593 199.867 17.0034 203.677 19.7311 204.896C22.7493 206.244 25.4205 203.152 29.52 199.359C34.9269 194.452 39.9868 191.021 46.0716 193.733C52.923 196.792 54.6742 204.694 51.1799 212.523C48.3554 218.875 43.239 222.362 37.7998 222.58Z" fill="#EF4C12"/>
<path d="M42.7064 140.584L46.5639 135.185L80.9582 159.761L77.1008 165.161L42.7064 140.584Z" fill="#EF4C12"/>
<path d="M104.03 73.7789L132.969 105.741L132.735 105.951L93.7412 103.166L112.238 123.594L107.323 128.05L78.4243 96.1281L78.6745 95.9021L117.596 98.6867L99.0997 78.2585L104.03 73.7789Z" fill="#EF4C12"/>
<path d="M192.219 46.3368C197.909 57.5315 193.365 68.7263 183.576 73.7062C172.617 79.2835 159.479 74.9573 154.048 64.2791C148.609 53.5767 152.87 40.3157 163.571 34.8757C168.324 32.4866 174.917 32.0184 180.227 33.673L179.428 40.2592C175.014 38.8548 170.108 39.0566 166.533 40.8726C159.665 44.3674 156.09 53.4233 160.052 61.2281C163.805 68.6133 172.763 71.7126 180.8 67.6205C187.272 64.3275 190.129 57.9028 187.208 52.1561L187.151 52.0431L175.49 57.9755L172.73 52.5516L190.565 43.4876C191.09 44.2867 191.687 45.2794 192.219 46.3368Z" fill="#EF4C12"/>
<path d="M319.096 0L320.306 43.0922L319.992 43.1002L292.182 15.6339L292.957 43.181L286.324 43.3666L285.113 0.330898L285.452 0.322819L313.213 27.7407L312.438 0.193701L319.096 0Z" fill="#EF4C12"/>
<path d="M454.042 32.5189L437.531 71.4383L431.422 68.8474L438.395 52.4064L421.545 45.2553L414.572 61.6963L408.487 59.1135L424.998 20.1942L431.083 22.777L424.119 39.1938L440.969 46.3449L447.933 29.9281L454.042 32.5189Z" fill="#EF4C12"/>
<path d="M483.845 73.6498C491.302 64.1742 505.101 62.4873 514.559 69.929C523.993 77.3545 525.647 91.1966 518.191 100.672C510.799 110.067 496.991 111.681 487.533 104.24C478.099 96.8141 476.453 83.0447 483.845 73.6498ZM512.945 96.4832C518.118 89.9133 516.956 80.3247 510.403 75.1672C503.85 70.0097 494.304 71.172 489.131 77.7419C483.99 84.2715 485.128 93.8117 491.681 98.9611C498.234 104.119 507.805 103.013 512.945 96.4832Z" fill="#EF4C12"/>
<path d="M564.916 119.841L573.462 131.101C578.409 137.614 577.457 146.727 571.34 151.376C565.344 155.928 556.418 154.305 551.48 147.792L546.944 141.819L535.275 150.681L531.264 145.395L564.916 119.841ZM567.369 146.057C570.581 143.619 570.961 138.688 568.217 135.08L563.681 129.107L552.174 137.84L556.685 143.829C559.412 147.453 564.222 148.446 567.369 146.057Z" fill="#EF4C12"/>
<path d="M603.128 193.015L593.234 197.414L599.73 212.031L593.694 214.718L587.197 200.101L576.513 204.855L584.042 221.797L578.006 224.485L567.781 201.482L606.404 184.306L616.629 207.309L610.665 209.964L603.128 193.015Z" fill="#EF4C12"/>
<path d="M311.551 597.116C239.768 597.116 172.278 569.157 121.518 518.389C70.7578 467.621 42.8033 400.13 42.8033 328.329C42.8033 256.527 70.7578 189.036 121.518 138.268C172.278 87.4999 239.76 59.5413 311.551 59.5413C383.341 59.5413 450.823 87.4999 501.583 138.268C552.343 189.036 580.298 256.527 580.298 328.329C580.298 400.13 552.343 467.621 501.583 518.389C450.823 569.157 383.333 597.116 311.551 597.116ZM311.551 69.2267C168.695 69.2267 52.4793 185.468 52.4793 328.337C52.4793 471.205 168.703 587.447 311.551 587.447C454.398 587.447 570.622 471.205 570.622 328.337C570.622 185.468 454.406 69.2267 311.551 69.2267Z" fill="#EF4C12"/>
</svg>
